<?xml version="1.0" encoding="utf-8"?>
<!-- Generator: Adobe Illustrator 18.1.0, SVG Export Plug-In . SVG Version: 6.00 Build 0)  -->
<svg version="1.1" id="Layer_1" xmlns="http://www.w3.org/2000/svg" xmlns:xlink="http://www.w3.org/1999/xlink" x="0px" y="0px"
	 viewBox="0 0 12.7 27.6" enable-background="new 0 0 12.7 27.6" xml:space="preserve">
<g>
	<g id="kE4gyy_1_">
		<g>
			<path fill="#65C7C1" d="M12.2,14.7c0.2-1.6,0.4-3.1,0.5-4.7c-1.5,0-2.9,0-4.3,0c0-0.9,0-2.7,0-3.5c0-1.1,0.5-1.6,1.6-1.6
				c0.9,0,1.8,0,2.7,0c0-1.6,0-3.2,0-4.7c-1.8,0-3.6,0-5.4,0c-0.7,0-1.3,0.3-2,0.6c-1.6,0.8-2.4,2.2-2.5,4c-0.1,1.5,0,3.9,0,5.4
				c-0.9,0-1.8,0-2.7,0c0,1.6,0,3,0,4.6c0.9,0,1.8,0,2.7,0c0,4.6,0,8.3,0,12.9c1.9,0,3.7,0,5.6,0c0-4.6,0-8.3,0-12.9
				C9.7,14.7,10.9,14.7,12.2,14.7z"/>
		</g>
	</g>
</g>
</svg>
