<?xml version="1.0" encoding="utf-8"?>
<!-- Generator: Adobe Illustrator 18.1.0, SVG Export Plug-In . SVG Version: 6.00 Build 0)  -->
<svg version="1.1" id="Layer_1" xmlns="http://www.w3.org/2000/svg" xmlns:xlink="http://www.w3.org/1999/xlink" x="0px" y="0px"
	 viewBox="0 0 26.5 27.7" enable-background="new 0 0 26.5 27.7" xml:space="preserve">
<g>
	<path fill-rule="evenodd" clip-rule="evenodd" fill="#65C7C1" d="M13.1,27.5c-2,0-4.1,0-6.1,0c-4.1,0-6.8-2.8-6.8-6.8
		c0-4.2,0-9.4,0-13.6c0-4.1,2.8-6.9,6.9-6.9c4.1,0,8.3,0,12.4,0c4.1,0,6.9,2.8,6.9,6.9c0,4.2,0,9.4,0,13.6c0,4-2.7,6.8-6.7,6.8
		C17.4,27.5,15.3,27.5,13.1,27.5z M19.1,11.4c0.9,3,0.5,5.7-2.1,7.6c-2,1.5-4.2,1.7-6.4,0.5c-3.3-1.8-4-4.7-3-8.1c-1.7,0-3.3,0-5,0
		c0,2.8,0,6.6,0,9.4c0,2.5,1.6,4.3,4.1,4.3c4.3,0.1,8.7,0.1,13,0c2.6,0,4.1-1.8,4.1-4.4c0-1.4,0-3.9,0-5.3c0-1.3,0-2.6,0-4
		C22.2,11.4,20.7,11.4,19.1,11.4z M13.4,18.5c2.4,0,4.4-2.1,4.5-4.5c0-2.4-2.2-4.6-4.6-4.5c-2.5,0-4.5,2.2-4.4,4.7
		C9,16.6,11,18.5,13.4,18.5z"/>
	<rect x="17.9" y="3.6" fill-rule="evenodd" clip-rule="evenodd" fill="#FFFFFF" width="3.8" height="4.1"/>
	
		<circle fill-rule="evenodd" clip-rule="evenodd" fill="#FFFFFF" stroke="#65C7C1" stroke-width="2.5" stroke-miterlimit="10" cx="13.1" cy="13.8" r="6.7"/>
</g>
</svg>
