<?xml version="1.0" encoding="utf-8"?>
<!-- Generator: Adobe Illustrator 18.1.0, SVG Export Plug-In . SVG Version: 6.00 Build 0)  -->
<svg version="1.1" id="Layer_1" xmlns="http://www.w3.org/2000/svg" xmlns:xlink="http://www.w3.org/1999/xlink" x="0px" y="0px"
	 viewBox="0 0 442.9 234.2" enable-background="new 0 0 442.9 234.2" xml:space="preserve">
<g>
	<g>
		<path fill="#65C7C1" d="M265.6,141.5h-4.1V155h1.6v-5.1h2.5c3.1,0,5-1.5,5-4.2C270.6,142.9,268.7,141.5,265.6,141.5z M265.6,148.5
			H263v-5.6h2.6c2.1,0,3.4,0.9,3.4,2.8C269,147.5,267.9,148.5,265.6,148.5z"/>
		<path fill="#65C7C1" d="M283.9,145.7c0-2.6-1.9-4.2-5-4.2h-4.1V155h1.6v-5.3h1.7c0.3,0,0.9,0,1.2,0l3.1,5.3h1.9l-3.3-5.6
			C282.7,149,283.9,147.7,283.9,145.7z M279,148.4h-2.7v-5.5h2.6c2.1,0,3.4,0.9,3.4,2.8C282.3,147.7,281,148.4,279,148.4z"/>
		<polygon fill="#65C7C1" points="290.8,148.6 296.7,148.6 296.7,147.2 290.8,147.2 290.8,142.9 298.3,142.9 298.3,141.5 
			289.2,141.5 289.2,155 298.4,155 298.4,153.5 290.8,153.5 		"/>
		<polygon fill="#65C7C1" points="302.9,142.9 307.6,142.9 307.6,155 309.1,155 309.1,142.9 313.8,142.9 313.8,141.5 302.9,141.5 		
			"/>
		<polygon fill="#65C7C1" points="318.1,142.9 322.7,142.9 322.7,155 324.3,155 324.3,142.9 329,142.9 329,141.5 318.1,141.5 		"/>
		<path fill="#65C7C1" d="M339.8,145.9c-0.7,1-1.1,1.7-1.2,1.7h0c0,0-0.5-0.8-1.2-1.8l-3-4.4h-1.8l5.2,7.6v5.9h1.6v-5.9l5.2-7.6
			h-1.7L339.8,145.9z"/>
		<path fill="#65C7C1" d="M346.5,153.2c-0.7,0-1,0.4-1,1c0,0.5,0.3,1,1,1c0.7,0,1-0.4,1-1C347.5,153.6,347.1,153.2,346.5,153.2z"/>
		<path fill="#65C7C1" d="M364.8,147.4c-1.9-0.4-3.6-0.8-3.6-2.6c0-1.4,1-2.2,3-2.2c2,0,3.1,0.9,3.5,2.4l1.5-0.4
			c-0.6-2.3-2.4-3.4-4.9-3.4c-2.8,0-4.6,1.3-4.6,3.7c0,2.7,2.4,3.4,4.2,3.8c1.7,0.4,3.9,0.5,3.9,2.7c0,1.6-1.2,2.4-3.2,2.4
			c-2.1,0-3.7-0.9-3.8-2.8l-1.5,0.4c0.4,3.1,3,3.8,5.3,3.8c3,0,4.8-1.3,4.8-3.8C369.2,148.4,366.8,147.8,364.8,147.4z"/>
		<rect x="374.7" y="141.5" fill="#65C7C1" width="1.6" height="13.5"/>
		<path fill="#65C7C1" d="M388.8,149.7L388.8,149.7l-4.6-8.2h-1.7V155h1.6v-6.1c0-2.1,0-4.9,0-4.9h0c0,0,0.5,1.1,1.8,3.3l2.5,4.3
			h0.9l2.5-4.4c1.2-2.2,1.7-3.2,1.8-3.3h0c0,0-0.1,2.8-0.1,4.9v6.1h1.6v-13.5h-1.6L388.8,149.7z"/>
		<path fill="#65C7C1" d="M404.6,141.5h-4.1V155h1.6v-5.1h2.5c3.1,0,5-1.5,5-4.2C409.6,142.9,407.7,141.5,404.6,141.5z M404.6,148.5
			H402v-5.6h2.6c2.1,0,3.4,0.9,3.4,2.8C408,147.5,406.9,148.5,404.6,148.5z"/>
		<polygon fill="#65C7C1" points="415.7,141.5 414.1,141.5 414.1,155 422.8,155 422.8,153.5 415.7,153.5 		"/>
		<polygon fill="#65C7C1" points="428.7,148.6 434.6,148.6 434.6,147.2 428.7,147.2 428.7,142.9 436.2,142.9 436.2,141.5 
			427.1,141.5 427.1,155 436.3,155 436.3,153.5 428.7,153.5 		"/>
		<path fill="#65C7C1" d="M441.9,153.2c-0.7,0-1,0.4-1,1c0,0.5,0.3,1,1,1c0.7,0,1-0.4,1-1C442.9,153.6,442.6,153.2,441.9,153.2z"/>
	</g>
	<g>
		<path fill="#65C7C1" d="M248.3,162.4h-2.5c-0.2,0-0.3,0.1-0.3,0.3c0,0.2,0.1,0.3,0.3,0.3h1v3.3c0,0.2,0.1,0.3,0.3,0.3
			c0.2,0,0.3-0.1,0.3-0.3v-3.3h0.9c0.2,0,0.3-0.1,0.3-0.3C248.6,162.5,248.5,162.4,248.3,162.4z"/>
		<path fill="#65C7C1" d="M252.6,162.3c-0.2,0-0.2,0.1-0.3,0.2l-1.3,2.5l-1.3-2.5c-0.1-0.1-0.1-0.2-0.3-0.2c-0.2,0-0.3,0.1-0.3,0.3
			v3.6c0,0.2,0.1,0.3,0.3,0.3s0.3-0.1,0.3-0.3v-2.5l1.1,2c0.1,0.1,0.2,0.2,0.3,0.2c0.1,0,0.2-0.1,0.3-0.2l1.1-2v2.5
			c0,0.2,0.1,0.3,0.3,0.3s0.3-0.1,0.3-0.3v-3.6C252.9,162.5,252.8,162.3,252.6,162.3z"/>
		<path fill="#65C7C1" d="M128.5,126c1.1-1.9,2.4-4.2,3.5-6.2c0.8-1.4,3-5.3,3.7-6.7c1.7-4,3.1-6,5.1-10.8c1.8-4.3,3.6-7.6,5.3-12.2
			c2.2-6,3.2-11.9,3.5-18.3c0.1-2.9-0.2-5.8-0.4-8.6c-0.4-6.5-2.8-12.2-7.5-16.3c-2.1-1.9-4.9-4.6-7.5-5.7
			c-4.5-1.8-7.3-2.9-12.2-3.4c-3.1-0.3-5.7-0.2-8.8-0.1c-1.7,0.1-3.5,0.2-5,0.9c-1.7,0.8-3.4,1.7-5.1,2.7c-3,1.9-4.9,4.6-6.5,7.7
			c-2,3.8-2.6,8-2.9,12.3c-0.4,5.6,0.7,11.1,2,16.5c0.5,2.3,1.3,4.5,1.9,6.8c0.2,1,1,2.7,1.7,2.1c0.4,0.3,0.8,0.1,1.1-0.8
			c0.3-0.8-0.5-3.1-1-4.3c-2.2-4.8-2.9-12.1-3-17.4c0-2.2,0.5-4.5,0.7-6.7c0.3-3.1,1.4-5.9,2.8-8.4c1.5-2.7,3.5-5,6.4-6.2
			c1.6-0.7,2.9-2.3,4.7-2.4c0,0,0.1,0,0.1,0c0.3,0,2.2-0.6,3.1-0.7c0.8-0.1,4.2,0,5,0c1,0,7.3,1.2,8.3,1.4
			c3.3,0.9,8.9,2.9,14.9,10.5c1.9,2.4,2.6,5.6,3.4,8.6c1,4.3,1.1,8.6,0.9,13c-0.2,4.5-1,8.9-2.5,13.2c-0.9,2.5-2.4,7.3-3.8,10.5
			c-1.1,2.4-4,8.3-5.3,10.5c-0.7,1.3-3.4,6.5-4.1,7.9c-1.3,2.7-4.5,8-6.1,11.1c-3.5,6.5-6.4,10.4-7.9,13.8c-0.4,0.8-2.7,4.2-3.9,6.4
			c-0.2-1.2-0.3-3.2-0.4-3.5c-0.5-1.8-1-3.2-1.2-5.5c-0.3-2.8-1.1-5.5-1.2-8.4c-0.1-1.7-0.3-3.4-0.7-5c-0.3-1.1-0.5-2.2-0.5-3.3
			c0-2-0.3-4-0.6-6c-0.4-3.6-0.8-7.1-1.1-10.7c-0.3-2.7-0.5-5.3-0.7-8c-0.3-3.8-1-7.7-1.1-11.5c-0.1-2.1-0.1-4.1-0.4-6.2
			c-0.4-2.6-0.4-5.2-0.5-7.8c-0.1-3.4,0-6.8,0.1-10.1c0-1.3-1-2.2-2.1-2c-0.3-0.1-0.7,0-1.1,0.2c-1.2,0.6-0.6,1.7-0.5,2.5
			c0.3,3.9,1.3,7.8,1.2,11.7c0,1.9-0.2,3.8,0.2,5.8c0.4,1.8,0.4,3.8,0.6,5.6c0.2,1.9,0.2,3.8,0.4,5.7c0.3,2.5,0.8,5.1,0.8,7.6
			c0.1,4,0.6,8,1,12c0.6,5.9,1.2,11.8,2,17.7c0.4,3.1,0.7,6.8,1.3,9.9c0.6,2.9,0.8,5.5,1.3,8.2c0.4,1.9,0.6,2.8,0.6,4.3
			c-0.9,1.1-1.1,1.8-2.1,2.8c-0.5,0.5-2,2.6-1.9,3.4c0.1,0.8,0.5,1.6,1.2,1.3c0.2,0.1,0.5,0.1,0.9-0.1c0.4-0.3,1.2-1.4,1.6-1.8
			c0.3-0.5,0.7-0.9,1-1.4c0.2,1.4,0.1,2.1,1.3,2c0,0,0,0,0.1,0c0.1,0,0.3,0,0.6,0c1.3-0.2,1.7-0.9,1.6-2.3c-0.1-1.2-0.4-1.8-0.5-3.1
			c0.5-0.7,1.5-2.7,2.1-3.9c0.6-1.2,1.3-2.4,1.9-3.6c1.7-3,3.7-5.8,5.2-9C124.9,131.4,127,128.8,128.5,126z"/>
		<path fill="#65C7C1" d="M173.6,103.3c0.6-0.2,0.7-0.8,0.8-1.6c0-0.4,0.1-0.8,0.1-1c0.1-2-1.1-2.8-2.6-2.1
			c-1.3,0.6-1.6,2.1-0.8,3.8C171.7,103.7,172.6,103.6,173.6,103.3z"/>
		<path fill="#65C7C1" d="M46,185.5c-0.1-0.7-0.1-1.3-0.3-2c-0.3-1-0.3-2.4-0.6-3.4c-0.4-1.1-0.4-2.5-0.5-3.7
			c-0.1-1.1-0.2-2.3-0.3-3.5c-0.1-0.6-0.3-1.2-0.4-1.8c-0.2-1.3-0.3-2.6-0.5-3.9c-0.8-5-0.6-10-1.2-15c-0.4-3.8-0.2-7.6-0.6-11.3
			c-0.2-2.7-0.3-5.4-0.4-8c-0.2-2.7-0.1-5.3-0.2-8c-0.1-3.5-0.3-6.9-0.4-10.4c-0.1-3.4,0.1-6.7,0-10.1c-0.1-4.4,0.5-8.8,0.5-13.2
			c0-3.1,0.3-6.3,0.3-9.4c0-3.9,0-7.9,0.2-11.7c0.3-4.8,0.2-9.5,0.5-14.3c0.2-2.7,0.4-5.4,0.4-8.1c0.1-4.6,0.6-9.1,0.9-13.6
			c0.2-2,0-4,0.4-5.9c0.4-2.3,0.5-4.5,0.8-6.8c0.3-2.8,0.3-5.7,0.9-8.5c0.3-1.5,0.4-3,0.7-4.5c0.4-2.3,1.5-4.5,1.5-6.9
			c0-0.9,0-1.4-0.9-1.4c-0.3,0-0.6-0.1-1,0c-0.6,0-1.2,0.1-1.3,1.1c0,0.3-0.1,0.6-0.2,0.9c-1.3,3-2.3,6.1-3.2,9.3
			c-0.8,3-1.8,6-2.2,9c-0.7,5.1-2.4,9.9-2.9,15.1c-0.3,2.6-0.7,5.2-1.1,7.9c-0.5,3.5-0.8,6.9-1.2,10.4c-0.2,2-0.4,4.1-0.6,6.1
			c-0.2,1.6-0.1,3.3-0.4,4.9c-0.7,3.5-0.5,7.1-0.9,10.6c-0.4,3.6-0.5,7.3-0.6,10.9c-0.1,4.4-0.2,8.8-0.4,13.3c-0.1,4.3,0,8.7,0,13.1
			c0,1.4-0.3,2.9-0.2,4.4c0.3,5.1-0.1,10.1,0.2,15.2c0.3,4.5-0.4,9.1-0.4,13.6c0,4.1-0.3,8.2-0.5,12.3c-0.2,3.3-0.8,6.6-0.6,9.9
			c0.1,1.9-0.6,3.7-1.1,5.5l0.1,0.3c0,0-0.1,0-0.1,0c-0.2,0-0.4-0.1-0.5-0.4c-0.4-1.7-1.1-3.4-1.2-5.2c-0.2-2.8-0.6-5.6-0.8-8.3
			c-0.2-2.8-0.4-5.7-0.6-8.5c-0.2-2.6-0.2-5.1-0.5-7.7c-0.3-3.7-1-7.4-1.1-11.1c-0.1-2.7-0.4-5.3-0.6-8c-0.2-2.6-0.2-5.2-0.3-7.8
			c-0.1-2.5,0.1-5-0.2-7.4c-0.2-2.4-0.3-4.8-0.4-7.1c-0.1-2.5-0.1-5-0.4-7.5c-0.2-1.9-0.1-3.8-0.2-5.6c-0.2-2.6-0.3-5.3-0.3-7.9
			c0-2.3,0-4.6-0.2-6.8c-0.6-5.9-0.4-11.8-0.2-17.8c0-0.8-0.1-1.6-0.9-2.1c-0.7-0.4-1.3-0.3-1.9,0.1c-0.8,0.5-0.9,1.1-0.8,2
			c0.5,2.5,0.5,5,0.3,7.5c-0.2,3.3-0.1,6.6-0.3,9.9c-0.2,3.8-0.1,7.7-0.2,11.5c0,2.5,0,4.9-0.1,7.4c-0.2,3.6,0,7.2-0.1,10.8
			c-0.1,5-0.2,10-0.5,15c-0.1,2,0,4.1-0.3,6.1c-0.4,2.9-0.4,5.9-0.7,8.8c-0.4,3.3-0.4,6.7-1,10c-0.5,2.8-0.8,5.7-1.5,8.6
			c-0.5,2-0.7,4.1-1.1,6.2c-0.3,1.4-0.6,2.4-1,4.1c-0.2,1.1-0.5,2.2-0.8,3.4c-0.7,2.6-1,4.5-1.9,7c-0.2,0.6-1,2.5-1.3,3.4
			c-0.6,1.5-2.5,3.2-3.5,3.7c-1.6,0.8-3,1.1-3.4,3.2c-0.2,1.1,1.5,1.8,2.6,1.5c0.8-0.3,1.6-0.6,2.4-1c6.2-3.3,6.5-11.2,8.3-17
			c1.2-3.9,1.6-8.4,2.2-12.3c0.4-2.8,0.6-4.6,0.8-7.2c0.1-1.6,0.4-4.2,0.8-5.7c0.1-0.5,0.6-5.7,0.8-7.7c0.3-3.3,0.6-6.6,0.7-10
			c0.1-3.4,0.3-6.7,0.3-10.1c0-2.3,0.2-4.6,0.3-6.8c0.1-2,0.1-4.2,0.1-6.1c0.1-2.7,0-8.4,0.3-8.4c0.3,0,0.4,0.2,0.4,0.4
			c0.1,1.4,0.4,3.4,0.5,4.9c0.1,3.3,0.3,6,0.4,9.3c0.2,3.3,0.1,6.6,0.2,9.9c0.1,2.6,0.2,5.2,0.3,7.8c0.1,2.8,0.4,5.5,0.6,8.3
			c0.1,2.2,0.2,4.4,0.4,6.6c0.3,2.7,0.9,5.5,0.8,8.2c0,1.6,0.4,3.1,0.3,4.7c-0.1,1.5,0,2.9,0.2,4.3c0.3,2.5,0.3,4.9,0.4,7.4
			c0,2.1,0.4,4.2,0.7,6.3c0.3,2,0.8,4,0.7,6c-0.1,1.1,0,2.2,1,2.9c0.9,0.7,1.9,0.3,2.8-0.2c0.6-0.3,1.1-0.9,1.4-1.4
			c0.9-1.6,1.6-3.3,1.7-5.1c0.1-2,0.3-3.9,0.4-5.9c0-2.6,0.6-5.2,0.4-7.9c-0.1-2.6,0-5.2-0.1-7.8c-0.1-2.6,0.6-5.2,0.4-7.9
			c-0.3-4-0.3-8.1,0-12.1c0.2-2.5-0.2-4.9-0.1-7.3c0.1-3-0.1-5.9-0.1-8.9c0-2.5-0.2-5-0.1-7.4c0.1-2,0-3.9,0-5.9c0-2.3,0-4.6,0-7
			c-0.1-3.4,0.3-6.7,0.4-10.1c0.2-3,0.3-6.1,0.5-9.1c0.1-2.3,0.5-4.7,0.5-7c0-2.1,0-4.2,0.3-6.2c0.7-4.9,0.9-9.8,1.7-14.6
			c0.4-2.4,0.5-4.8,0.8-7.1c0.3-2.2,0.7-4.4,1-6.5c0.4-2.6,1-5.2,1.5-7.7c0.5-2.4,1.2-4.8,1.6-7.3c0.2-1,0.5-2,1.2-3.1
			c-0.2,2.3-0.3,4.2-0.5,6.2c-0.2,2.9-0.3,5.8-0.6,8.7c-0.3,3-0.8,5.9-0.9,8.9c-0.2,5-0.7,9.9-0.9,14.9c-0.1,1.9-0.1,3.8-0.2,5.6
			c-0.2,3.5,0,7.1-0.2,10.6c-0.3,4.5,0,9-0.4,13.5c-0.3,2.9-0.1,5.9-0.3,8.8c-0.2,2.3-0.3,4.6-0.3,6.8c0,2,0,4.1,0,6.2
			c-0.1,4.7-0.1,9.5,0,14.2c0.1,3.3-0.2,6.6,0.1,9.9c0.2,2.4,0.4,4.8,0.4,7.3c0,3.7,0.6,7.3,0.4,11c0,1,0.1,1.9,0.1,2.9
			c0.1,3.5,0.4,6.9,0.6,10.4c0.2,3.1,0.3,6.2,0.6,9.3c0.2,2.4,0.5,4.8,1,7.1c0.6,2.9,1.1,5.8,1.1,8.7c0,1,1.3,2.3,2.3,2.3
			c0.1,0,0.1,0,0.2,0c0,0,0.1,0,0.1,0c0.7,0,0.8-0.5,0.7-1.2C46.3,186.6,46.1,186.1,46,185.5z"/>
		<path fill="#65C7C1" d="M96.7,164.8c-0.4-2.2-0.6-4.5-1-6.7c-0.3-2.1-0.9-4.2-1.2-6.3c-0.5-3.3-0.9-6.6-1.7-9.8
			c-0.4-1.5-0.1-2.9,0.5-4.2c0.4-0.8,0.7-1.7,1-2.6c0.8-2.2,2-4.1,3.3-6c1-1.4,1.1-1.7,0.1-3c-0.5-0.6-0.9-0.8-1.6-0.1
			c-0.6,0.5-0.9,1.2-1.2,1.9c-0.8,1.8-2.2,4.5-3.3,6.4c-0.6-1.5-1-4.7-1.2-6.4c-0.5-3.5-1.2-6.9-2-10.4c-0.4-1.7-1-3.4-1.8-4.8
			c-1.3-0.2-2.3,0.5-3,1.4c-1.5,1.9-2,5.5-2.7,7.9c-0.9,3-1.2,6.2-1.9,9.2c-0.6,3-0.7,6.2-1.2,9.2c-0.4,2.2-1.3,8.8-2.4,7.6
			c0-3.5,0.1-8.6,0.6-12.7c0.4-3,0.1-6,0.4-9.1c0.4-5.2,0.1-10.6,1.9-15.6c0.3-0.9,0.1-1.8-0.8-2.2c-0.8-0.3-1.5,0-2.1,0.7
			c-1.5,1.7-1.9,3.9-2.7,5.9c-0.6,1.8-1.2,3.6-1.6,5.5c-0.3,1.8-0.8,3.5-1.2,5.2c-0.3,1.4-0.3,2.8-0.8,4.2c-1.1,3.2-1.5,6.5-2,9.8
			c-0.5,2.9-1.5,5.7-1.8,8.7c-0.2,1.3-0.9,4.1-1.3,3.7c-0.6-2.3-0.7-4.7-0.7-7l0,0c-0.1-2.3-0.4-3.3-0.4-6.2c0-2.8,0.2-5.6,0-8.5
			c-0.1-2,0.2-4.1,0.1-6.1c-0.1-2,0.2-4,0.3-6c0.1-2.4,0.7-4.7,1.1-7c0.2-1.1-1-1.9-1.9-1.5c-0.8,0.3-1.3,2-1.8,3
			c0.3-2.3,0-1.6,0.6-4c0.5-2.2,1.1-3.5,0.8-5.8c-0.1-0.8-1.7-2.8-2.6-1.9c-1.3,0-3.4,2.2-4.1,3.4c-1.5,2.4-2.2,3.5-3.1,5.7
			c-0.5,1.3-1.2,2.8-1.7,4.1c-1.1,2.9-1.7,5.8-2.3,8.8c-0.6,3.2-1.4,6.4-1.7,9.6c-0.2,1.8-0.4,3.6-0.5,5.5c-0.1,1.7-0.3,3.4-0.5,5
			c-0.3,2.4-0.5,5-0.4,7.3c0.1,1.9-0.1,3.9,0.3,5.7c0.2,0.9,0.8,1.8,1.5,2.6c0.8,1,1,0.8,2.1,1.3c0.4,0.2,0.8,0.2,1.2,0.3
			c0.4,0.1,0.8,0,1.3-0.1c0.1,0,0.3-0.1,0.4-0.1c0,0,0.1-0.1,0.1-0.2c0.4-0.3,1-1.1,1.2-1.8c0.2-0.5,0.4-1,0.5-1.5
			c0.3-1.2,0.5-2.5,0.6-3.7c0.2-2.2,0.8-4.3,1.2-6.5c0.5-2.6,0.4-4.8,0.8-7.4c0.4-2.6,0.8-5.1,1.2-7.7c0.4-2.5,1.6-10,1.7-10.8
			c0.1,0.9,0.4,2.8,0.4,3.1c0,2.6,0.3,3.8,0.3,6.4c0,2.5,0.2,5.2,0.2,7.8c0,4,0,8,0.2,12c0.1,1.9-0.2,7.9,2,9
			c0.3,0.3,0.8,0.4,1.3,0.5c1.6,0.2,2.6-0.7,2.8-2.5c0.4-2.7,1.1-5.4,1.6-8.1c0.3-2.2,0.7-3.9,1.2-6.9c0.5-2.5,0.7-6,1.4-8.5
			c0.9-3.4,1.8-8.6,2.3-10.3c0.1-0.3,0.2-1,0.7-0.8c0.3,0.1,0.5,0.5,0.4,1.1c-0.1,1.8-0.3,3.7-0.2,5.5c0.1,2.3-0.2,4.4-0.3,6.2
			c-0.1,1.9-0.3,3.7-0.5,5.6c-0.3,2.7-0.2,5.5-0.4,8.3c-0.2,2.6,0,5.1,0.2,7.7c0.1,0.8,0.7,1.1,1.4,1.5c3,1.5,5-12.2,5.3-14.3
			c0.4-2.6,0.8-5.4,1.4-8.1c0.6-2.6,1.7-5.3,2-8c0.1-0.8,2-8.5,2.5-8.4c1.8,0.4,1.5,5.9,2,7.7c0.7,2.1,1,4.3,1.4,6.5
			c0.5,2.5,1,5.1,0.2,7.7c-1.3,4.3-3,8.4-4,12.8c-0.5,2.4-0.9,4.7-1.4,7.1c-0.4,2-0.3,4.1-0.6,6.2c-0.5,3.1-0.3,5.1-0.4,7.9
			c0,1.2-0.2,3.9-0.2,5.2c0.1,7.4,0.5,11.9,1.3,19.1c0.3,2.5,0.4,5,0.8,7.4c0.2,1.7,0.5,3.3,0.7,5c0.1,1.8,0.8,3.7,1,5.6
			c0.4,3.9,2.7,8.5,3.8,10.8c0.4,0.8,1,2,2.5,1.8c3.5-0.5,4.4-6.9,4.9-9.6c0.4-2.2,0.5-4.3,0.7-6.5c0.1-2,0.2-3.7,0.4-5.9
			c0.1-1.5,0.1-3.4,0.1-4.9c0.1-2.4,0.2-4.9,0.3-7.3c0.1-5.1-0.5-10.2-1.1-15.2C97.7,175.2,97.8,170,96.7,164.8z M58.9,107.4
			c-0.4,1.2-0.3,2.5-0.8,3.8c-0.6,1.6-0.2,1.4-0.6,3.1c-0.3,1.6-0.5,3.2-0.9,4.7c-0.5,2.1-0.9,4.3-1.2,6.4c-0.4,3.1-0.8,6.1-1.2,9.2
			c-0.5,3.4-1.3,6.8-1.6,10.2c-0.1,1.5-0.6,3.7-1,5.2c-0.2,1.1-0.4,6.9-1.9,7.1c-1.2,0.2-1.8-2-1.9-2.7c-0.2-1.9,0-3.8-0.2-5.7
			c-0.1-2,0.6-3.8,0.5-5.8c-0.1-0.8,0.2-2.4,0.3-3.3c0.3-1.8,0.6-3.6,0.8-5.4c0.3-2.5,0.7-5,1-7.6c0.2-1.6,0.4-3.2,0.9-4.9
			c0.4-1.5,0.8-3.3,1.3-4.8c1.1-3.5,1.8-4.8,3.2-8.1c0.5-1,1.4-3.1,2.5-3.7c0.9-0.9,0.7-0.5,1.1,0.3
			C59.3,106.2,59.1,106.9,58.9,107.4z M96.3,211.1c-0.2,1.1-0.5,3.1-0.7,4.2c-0.5,2.9-0.8,4.3-1.6,6.7c-0.2,0.5-0.3,1.3-0.7,1.4
			c-0.6,0-1.8-0.4-2.1-1.2c-0.6-1.8-1-2.6-1.6-5.2c-0.9-3.9-1.7-9.6-2.2-13.7c-0.9-6.9-1.5-11.6-2.1-18.7c-0.1-1.4-0.3-3.9-0.1-5.9
			c0.2-1.9,0.2-2.8,0.2-4.3c0.1-4.1,0.7-8.5,1.3-12.6c0.3-2.2,1-4.4,1.3-6.5c0.3-1.8,0.9-3.6,1.3-5.4c0.3-1.2,0.6-1.6,1.1-3.6
			c0.1-0.2,0.3-0.3,0.5-0.3c0.3,0,0.5,1.3,0.6,1.5c0.3,2,0.6,2.6,1,4.5c0.3,1.9,0.2,3.9,0.7,5.7c0.9,3.3,1.3,6.7,1.6,10
			c0.3,2.4,0.8,4.2,0.7,6.7c0,2,0.2,3.5,0.2,4.9c0.1,2.6,0.2,5.3,0.6,7.8c0.5,2.9,0.4,5.8,0.5,8.7C96.9,198.3,96.7,208.8,96.3,211.1
			z"/>
		<path fill="#65C7C1" d="M261.9,103c-0.7-1.4-1.9-1.4-3.2-0.4c-1,0.8-1.5,1.9-2.4,2.7c-2.2,2.2-3.9,4.7-5.8,7.1
			c-2.3,2.9-3.6,6.2-5.5,9.3c-1.4,2.3-2.4,4.8-3.5,7.2c-0.5,1.1-1.3,2.1-1.6,3.4c-0.1,0.6-0.6,1.9-1.5,1.9c-0.9,0-1.8,0.1-2.6,0.2
			c-1.5,0.1-3,0.2-4.5,0.6c-1.3,0.4-2.5,1-3.7,1.3c-1,0.3-1.3,0-1.2-0.9c0.1-0.7,0.2-1.4,0.4-2c0.8-2.4,1.7-4.7,2.3-7.2
			c1-4.1,2-8.1,4.1-11.9c0.4-0.7,0.1-1.3-0.3-1.9c-0.3-0.6-0.8-0.6-1.4-0.6c-1.1,0-1.3,0.8-1.7,1.4c-1.2,1.9-2.7,3.7-3.2,5.9
			c-0.7,3.3-2.1,6.4-2.9,9.7c-0.8,3.2-1.3,6.5-2.1,9.8c-0.5,2.1-0.9,4.2-1.4,6.2c-0.1,0.5-0.3,1-1,1.1c0.2-2.5-0.4-5-0.2-7.5
			c0.3-2.7,0.5-5.5,0.3-8.2c-0.3-3.2,0-6.3,0-9.5c0-3.6,0.2-7.2,0.7-10.7c0.1-0.7,0-1.3-0.2-1.9c-0.5-1.1-1.5-1.3-2.4-0.6
			c-0.9,0.8-1.5,1.7-2,2.8c-1.6,3.8-2.6,7.8-3.4,11.8c-0.6,3.2-1.5,6.3-2.1,9.5c-0.3,1.3-0.7,2.6-0.6,4c0,1-0.4,2.1-0.7,3.2
			c0-2.8,0-5.4,0-8c0-1.4,0.2-3.4,0-4.7c-0.2-1.7-0.2-2.9-0.1-4.6c0.1-1.6-0.5-5.1-0.6-6.7c-0.1-1.1-0.2-2.2-0.4-3.3
			c-0.1-1.9,0-3.6-0.7-5.2c-0.4-1-0.1-1.7-1.7-1.6c-0.8,0-1.1,0.5-1.7,1c-1.2,1.1-1.9,2.3-2.7,3.6c-2.2,3.5-2.6,4.5-3.5,6.1
			c-0.4,0.6-0.8,1.4-1.2,2.3c0.2-2.1,0.1-3.9-1.2-4c-1.1-0.1-2.4,0.2-3.3,0.7c-2.8,1.6-6.3,8.3-7.9,12.6c-0.3,0.9-0.7,1.9-1,2.8
			c-0.6,1.4-1,2.7-1.4,4c0,0,0,0,0-0.1c-0.6,1.1-3.5,9-4.9,13c-0.5,1.5-1.6,3.8-2.9,4.8c-1-2.5-0.7-4.9-0.7-7.5c0-3.4,0.1-6,0-9.4
			c-0.2-4.2,0.1-8.4-0.2-12.5c-0.2-2.4,0.1-4.8,0.2-7.2c0-0.4,0-0.8,0.2-1.3c0.9-1.9-0.2-3.7-2.3-3.7c-0.3,0-0.5,0.1-0.6,0.4
			c-1.1,2.6-1.4,4.2-2.4,6.2c-0.7,1.3-2.5,4.5-3.5,6.8c-1.4,3.1-2.7,4.9-4.1,8.4c-1.1,2.7-3.3,6.2-4.5,8.9c-0.4,0.4-1.6,0.4-2.7,0.7
			c-2,0.5-3.3,0.5-5.2,1.3c-1.6,0.7-3.3,1.1-5,1.6c-0.2,0.1-0.5,0.3-0.7,0c-0.2-0.3-0.1-0.6,0.1-0.8c1.5-2,2.4-4.3,3.6-6.5
			c1.3-2.3,3.2-4.2,4.4-6.5c0.6-1.2,1.9-2.3,2.7-3.5c1.2-1.8,2.9-3.3,3.8-5.4c0.1-0.2,0.3-0.4,0.6-0.5c0.7-0.5,1.2-1.2,1.8-1.8
			c0.6-0.5,0.2-1.8-0.6-2.5c-0.6-0.5-2,0-2.6,0.7c-1.2,1.3-1.9,2.9-3.1,4.2c-1.3,1.4-2.5,2.9-3.4,4.5c-0.6,1.1-1.4,2.1-2.2,3
			c-0.3,0.3-4,5.5-5.1,8c-0.9,2-2.7,3.5-3.8,5.4c-0.8,1.5-1.7,2.9-2.6,4.3c-0.9,1.3-1.9,2.6-2.6,4.1c-0.6,1.3-1.7,2.3-2.3,3.5
			c-0.4,0.8-1.7,2.6-2.3,3.3c-1,1.4-2.5,1.9-2.3-0.8c0.2-1.8,0.9-3.4,1.4-5.1c0.8-2.8,1.9-5.6,3.4-8.2c1-1.7,1.5-3.7,2.9-5.3
			c1.1-1.2,2.3-2.4,3.3-3.7c1.5-2.1,3.2-4.2,4.9-6.2c3.2-3.7,6-7.5,7.9-12c0.5-1.2-0.1-2.8-1.2-3c-1-0.2-3.5,0.7-4.6,1.5
			c-2.8,2.2-4.8,4.4-6.8,7.3c-1.5,2.3-2.8,4.7-3.8,7.3c-0.2,0.6-0.7,1.3-1,2c-0.4,1.2-0.6,2.3-1.1,3.5c-0.4,1.1-0.7,2.6-1.3,3.6
			c-0.2,0.4,0.4-0.5-0.8,0.8c-2.1,2.3-4,4.9-6.4,7c-0.2,0.2-0.7,0.6-0.8,0.7c-0.7,0.9-1.7,1.8-2.2,2.8c-0.6,1.1,0.9,2.3,2.2,0.9
			c1.8-2.1,3.8-4.2,5.8-6.5c-0.7,2.2-1.9,5.7-2.7,7.8c-0.8,2.4-1.9,4.7-2.1,7.3c-0.1,1.5,1.4,2.8,3,2.7c2.5-0.2,3.8-2,5.2-3.7
			c1.5-1.7,2.2-3.8,3.6-5.6c0.3-0.4,0.6-0.7,0.7-1.2c0.8-2,1.9-3.4,2.6-3.8c2.5,0.7,6.7-1.6,9.2-2.4c1.7-0.6,3.5-1.1,5.3-1.4
			c0.6-0.1,1.6-0.6,1.6,0.2c0.1,1-1,2.8-1.3,3.7c-0.5,1.5-0.9,2.6-1.5,4.1c-0.6,1.3-0.8,2.8-1.4,4.2c-1.5,3.6-2.4,7.9-2.6,11.8
			c-0.1,1-0.8,2.1,0.5,2.9c1.1,0.6,2,0,3-1c1.6-1.5,3.3-4,4.6-5.7c1.9-2.5,2.9-4.1,4.8-6.7c1.2-1.6,2.9-4.3,3.6-5.9
			c0.7-1.6,1.8-3.1,2.6-4.4c0.5-0.8,0.3-1.7,0.7-2.8c0.3-1,0.3-1.9,0.2-2.9c-0.2-1.3-0.8-1.7-2.1-1.9c-1.9-0.2-3.8-0.2-5.6-0.2
			c-1.2,0-1.1-0.2-0.7-1.1c1.3-2.9,3.7-6.6,4.9-9.5c1.6-3.6,2.7-5.6,4.8-10.5c0.2-0.6,0.5-1.6,1.1-1.6c0.1,1,0.1,2,0.1,2.4
			c0,3.4,0.5,6.7,0.4,10c-0.1,2.5,0.3,5.1,0.3,7.7c0,2.6,0,5.2-0.1,7.8c-0.1,4.1-0.6,6,0,10c0.3,2,2.7,2.1,3.7,0.7
			c1-1.4,2.9-5.3,3.9-7.6c-0.3,1.6-0.6,3.2-0.7,4.8c-0.1,0.9,0.3,1.3,0.5,2.1c0.3,0.9,0.2,1.5,1.5,1.8c2.9,0.9,5-1.4,6.6-4.4
			c-0.3,1.8-0.6,3.6-0.9,5.4c-0.4,2.3-0.9,4.4-1.2,6.6c-0.2,1.5-0.5,3.2-0.7,4.8c-0.3,2.1-0.4,3.8-0.4,5.9c0,1.2-0.3,3.1-0.3,4.4
			c0,3,0.1,4,0.2,5.5c0.2,2.9,0.1,5.7,0.5,8.6c0.2,1.3,0.1,2.6,0.1,3.9c0,2,0.4,4,0.7,6c0.2,1.9,0.5,3.8,0.7,5.7
			c0.2,1.9,0.7,3.3,0.7,5c0.1,1.9,0.9,3.7,1.4,5.5c0.3,1.3,0.9,2.4,1.2,3.6c0.4,1.3,1.2,2.6,1.7,3.7c0.7,1.4,1.4,2.6,2.4,3.7
			c0.9,1,2.1,1.9,3.1,2.9c0.8,0.8,2.1,1.1,3.4,0.3c0.1-0.1,0.2-0.1,0.3-0.2c0.1-0.1,0.2-0.1,0.3-0.2c1.6-1.1,1.9-2.8,2.8-4.3
			c0.6-1.1,0.8-2.3,1.1-3.5c0.3-1.3,0.9-2.7,1.1-5.3c0.1-1.5,0.2-3,0.3-4.5c0.1-1.3,0.2-2.6,0.1-3.8c0-1.5,0-2.9,0.1-4.3
			c0.1-1.5,0.4-2.7,0.3-4.2c-0.1-1.7,0-3.8,0-5.5c0-3.2-0.1-6.5-0.2-9.7c-0.1-2.1-0.2-4.3-0.3-6.5c-0.1-2.2,0.1-4.9-0.3-7.3
			c-0.5-2.9-0.4-5.9-0.9-8.8c-0.3-1.7-0.4-3.5-0.6-5.2c-0.2-1.9-0.8-3.7-0.8-5.6c0-1.7-0.7-3.2-0.9-4.9c-0.6-4.8-1.4-9.6-1.8-14.5
			c-0.2-1.9-0.8-3.7-1-5.6c-0.1-0.7-0.7-5.3-1.4-8.3c1.1-1.9,1.8-3.5,3-5.6c0.7-1.3,3-5.8,4.4-6.5c0.3-0.1,0.5,0.1,0.7,0.6
			c0,0.6,0,1.2,0.1,1.4c0.7,3,1.1,7.9,1.2,10.9c0.1,2.2,0.3,4.3,0.3,6.5c0,3.5-0.1,6.9-0.3,10.4c-0.1,2.5-0.2,4.9-0.4,7.4
			c-0.2,2.3-0.3,4.7-0.5,7c0,0.7-0.2,1.5-0.2,2.3l0.3,2.9c1.8,0.5,2.1,0.3,2.9-1.4c1.3-2.5,1.4-5.8,1.7-8.6c0.4-3.1,0.6-6.3,0.9-9.4
			c0.3-3.1,0.6-6.2,1.4-9.3c0.7-2.7,1.3-5.4,1.7-8.2c0.2-1.5,1-2.8,1-4.3c0.1-1.5,1-2.8,1.2-4.3c0-0.2,0.2-0.4,0.4-0.4
			c0.3,0,0.4,0.2,0.4,0.5c0.2,1,0.1,2,0.1,3c-0.1,3.1,0,6.2-0.1,9.2c0,2.9,0,5.8-0.1,8.7c-0.1,2-0.1,4.2-0.1,6.2
			c0,4.3,0,8.6,0.4,12.8c0.1,0.7,0.3,1.4,1.1,1.4c0.8,0.1,1.3-0.2,1.7-1c0.7-1.5,0.6-3.2,1.1-4.7c1-2.9,1.5-6,2.4-8.9
			c0.2-0.8,0.5-1,1.2-0.8c1.4,0.3,2.6-0.2,3.9-0.7c0.9-0.4,1.7-1.1,2.5-1.2c1.8-0.4,3.6-0.5,5.4-0.7c0.3,0,1.1,0,0.9,0.5
			c-0.3,0.9-0.7,2-1.1,2.9c-0.7,1.6-1.6,3.1-2.1,4.7c-0.7,2.3-1.6,4.5-2.2,6.8c-0.6,2.2-1.1,4.5-1.9,6.7c-0.6,1.8-0.7,3.6-0.8,5.4
			c0,2,0.1,4.1,1,6c0.4,0.8,1,1.1,1.9,0.7c0.9-0.4,1.7-0.9,2.5-1.5c3.1-2.4,4.8-6,7.1-9c0.7-0.9,1.4-1.9,1.8-3
			c0.8-1.8,1.3-3.7,2.1-5.5c0.9-2.1,0.9-4.4,1.3-6.6c0.4-2.1-0.4-4.2-1.1-6.2c-0.6-1.6-1.5-2.8-3.1-3.3c-1.3-0.4-1.2-1.1-1.2-2.2
			c0.1-1.6,1.1-2.8,1.9-4.1c1.9-3.5,3.5-7.3,5.5-10.8c1.7-3,3.9-5.6,5.7-8.5c1.6-2.5,4.2-3.8,6.4-5.5
			C262.3,104.1,262.2,103.7,261.9,103z M141.1,120.9c1.2-1.5,4.5-4.3,4.9-3.7c0.2,0.4-1.3,2.7-1.4,2.9c-1.1,2-3.2,5-4.7,7.1
			c-1.1,1.5-5.2,6.7-5.8,6.7C136.1,127.1,139.8,122.5,141.1,120.9z M161.7,142.7c1.9-0.1,2.9,1.1,2.2,2.9c-0.5,1.3-0.9,2.6-1.5,3.8
			c-1.1,2.2-2.6,4.2-3.8,6.5c-0.9,1.7-2.3,3.1-3.4,4.7c-1.2,1.7-2.5,3.3-3.7,5c-0.2,0.3-0.5,0.8-1,0.7c-0.6-0.2-0.1-0.6-0.2-1.2
			c0.5-1.7,0.3-3.3,1-5.2c0.4-1.3,0.9-3.3,1.4-4.6c0.9-2.2,1.4-3.9,2.3-6.9c0.4-1.5,1.3-3,1.8-4.6c0.1-0.4,0.3-0.5,0.7-0.6
			C159,142.9,160.3,142.7,161.7,142.7z M182.7,151.4c-0.4,1-1,3.7-2.6,1.5c-0.8-1.1,0.4-3.8,0.5-4.8c0.5-4.1,1.7-8.2,2.8-12.1
			c1.5-5.3,3.6-11,6.5-15.7c0.7-1.1,2.7-4.7,3.6-1.7c0.1,0.5-0.4,2.4-0.2,2.9c-0.4,1.2-1.2,2.3-1.6,3.4c-1.6,4.2-2.4,6.5-2.9,8.5
			c-0.9,3.3-2.1,6.5-2.9,9.7C185.1,145.9,183.8,148.7,182.7,151.4z M198.2,148.1c0.4,3.4,1.2,6.7,1.6,10.1c0.2,1.5,0.4,3.1,0.7,4.6
			c0.2,0.9,0,1.8,0,2.7c0.2,3.6,0.8,7.1,1.1,10.7c0.2,2.4,0.4,4.8,0.7,7.2c0.1,1.3-0.1,2.5-0.1,3.8c0,4.6,0.4,9.2,0.1,13.9
			c-0.3,5.5-0.5,11-0.8,16.5c-0.1,1.7-0.3,3.5-0.8,5.2c-0.7,2.6-1.5,5.1-2.6,7.6c-0.1,0.2-0.2,0.4-0.3,0.5c-0.2,0-0.5-0.1-0.8-0.2
			c-1.5-0.9-2.6-1.3-3.7-2.7c-1.1-1.4-1.9-3-2.5-4.9c-0.8-2.5-1.5-4.4-2.2-6.9c-0.5-1.9-0.8-3.9-1.1-5.9c-0.1-0.8-0.4-1.5-0.5-2.3
			c-0.1-1.2-0.3-2.8-0.6-3.9c-0.5-1.9-0.3-3.5-0.6-5.5c-0.4-2.2-0.3-4.3-0.4-6.5c-0.1-2.4-0.2-4.4-0.4-7.2
			c-0.2-4.4-0.2-8.7,0.3-13.1c0.2-2.2,0.7-4.2,1-6.4c0.2-2.1,0.9-4.1,1.1-6.1c0.3-2.1,0.5-4.3,0.9-6.4c0.5-2.4,1.3-4.7,1.6-7.1
			c0.4-2.3,1-4.8,1.7-7.1c0.7-2.2,1.1-4.3,1.7-6.5c0.4-1.3,0.7-3.4,1.4-4.8c0.3,1.4,0.4,2.4,0.6,3.5c0.3,1.3,0.4,2.5,0.6,3.8
			C196.9,139,197.7,143.5,198.2,148.1z M244.3,142.5c0.4,1.4,0.8,2.8,0.5,4.1c0.1,2.7-1,4.9-1.8,7.2c-0.7,1.8-1.5,3.4-2.4,5
			c-1.6,2.7-3.3,5.2-5.5,7.5c-0.3,0.3-0.6,0.5-0.9,0.7c-0.4,0.3-0.8,1-1.2,0.7c-0.6-0.3-0.9-1-1-1.7c-0.3-2.3,0.1-4.5,0.7-6.7
			c0.7-2.6,1.4-5.2,2.1-7.8c0.4-1.5,0.5-2,1.1-3.4c0.2-0.4,0.8-2.4,0.9-2.8c0.7-2.5,2-4,3.1-6.3c0.5-0.9,1.1-0.9,1.9-0.5
			C243.4,139.4,243.9,141,244.3,142.5z"/>
	</g>
</g>
</svg>
