<?xml version="1.0" encoding="utf-8"?>
<!-- Generator: Adobe Illustrator 18.1.1, SVG Export Plug-In . SVG Version: 6.00 Build 0)  -->
<svg version="1.1" id="Layer_1" xmlns="http://www.w3.org/2000/svg" xmlns:xlink="http://www.w3.org/1999/xlink" x="0px" y="0px"
   viewBox="0 0 251.9 239" enable-background="new 0 0 251.9 239" xml:space="preserve">
<g id="jLe0rI.tif">
  <g>
    <path d="M6.5,195.8c26.2,0.4,50.1-5.6,71.6-22.4c-22.8-2.4-38.2-13.4-46.7-35c7.5,0,14.2,0,21,0c-23.6-8.9-37.1-24.7-38.7-50.1
      c7.3,2,14,3.8,20.8,5.5C13,70,7.7,44.9,21.2,26.7c27.2,31.5,61.3,49.2,103.3,52.1c0-7.1-0.9-13.9,0.2-20.5
      c3.2-19.2,14.7-32.3,32.9-38.6c18.2-6.3,35.2-3.1,49.8,9.8c2.7,2.4,5.1,3.3,8.4,2.1c8.6-3.1,17.1-6.1,26.1-9.4
      c-3.2,10.7-10.3,18.4-19.2,24.7c0.2,0.5,0.3,1,0.5,1.4c8.4-2.2,16.8-4.3,25.2-6.5c0.3,0.3,0.6,0.7,1,1
      c-7.3,7.1-14.7,14.2-21.9,21.5c-1.3,1.3-2.5,3.5-2.5,5.3c0.1,40.2-13.9,74.9-41,104.2c-21.6,23.3-48.7,36.4-80.1,41
      c-31.2,4.6-60.9,0-89-14.5C11.9,199,9.2,197.4,6.5,195.8z"/>
  </g>
</g>
</svg>
